<?xml version="1.0" encoding="UTF-8"?>
<svg width="5000px" height="2048px" viewBox="0 0 5000 2048" version="1.1" xmlns="http://www.w3.org/2000/svg" xmlns:xlink="http://www.w3.org/1999/xlink">
    <!-- Generator: Sketch 46.2 (44496) - http://www.bohemiancoding.com/sketch -->
    <title>Horizontal White</title>
    <desc>Created with Sketch.</desc>
    <defs>
        <linearGradient x1="7.13757106%" y1="85.7378278%" x2="92.8773608%" y2="14.2581395%" id="linearGradient-1">
            <stop stop-color="white" offset="0%"></stop>
            <stop stop-color="white" offset="100%"></stop>
        </linearGradient>
        <linearGradient x1="8.00827026%" y1="88.6006383%" x2="92.018172%" y2="11.4226001%" id="linearGradient-2">
            <stop stop-color="white" offset="0%"></stop>
            <stop stop-color="white" offset="100%"></stop>
        </linearGradient>
    </defs>
    <g id="DeepHire-Logo" stroke="none" stroke-width="1" fill="none" fill-rule="evenodd">
        <g id="Horizontal-White">
            <path d="M2272.528,877.024 C2272.528,872.095975 2274.31998,867.840018 2277.904,864.256 C2281.48802,860.671982 2285.74398,858.88 2290.672,858.88 L2341.744,858.88 C2346.67202,858.88 2350.92798,860.671982 2354.512,864.256 C2358.09602,867.840018 2359.888,872.095975 2359.888,877.024 L2359.888,1317.856 C2359.888,1322.78402 2358.09602,1327.03998 2354.512,1330.624 C2350.92798,1334.20802 2346.67202,1336 2341.744,1336 L2290.672,1336 C2285.74398,1336 2281.48802,1334.20802 2277.904,1330.624 C2274.31998,1327.03998 2272.528,1322.78402 2272.528,1317.856 L2272.528,1302.4 C2263.11995,1313.15205 2250.12808,1322.55996 2233.552,1330.624 C2216.97592,1338.68804 2196.14413,1342.72 2171.056,1342.72 C2141.93585,1342.72 2116.28811,1335.44007 2094.112,1320.88 C2071.93589,1306.31993 2054.57606,1287.05612 2042.032,1263.088 C2029.48794,1239.11988 2022.54401,1213.02414 2021.2,1184.8 L2020.528,1161.28 L2021.2,1137.76 C2022.54401,1109.53586 2029.48794,1083.44012 2042.032,1059.472 C2054.57606,1035.50388 2071.93589,1016.24007 2094.112,1001.68 C2116.28811,987.119927 2141.93585,979.84 2171.056,979.84 C2195.69612,979.84 2216.30392,983.87196 2232.88,991.936 C2249.45608,1000.00004 2262.67195,1009.40795 2272.528,1020.16 L2272.528,877.024 Z M2130.4,1237.216 C2145.40808,1253.79208 2165.67987,1262.08 2191.216,1262.08 C2213.61611,1262.08 2232.20793,1255.47207 2246.992,1242.256 C2261.77607,1229.03993 2270.28799,1210.56012 2272.528,1186.816 C2273.424,1177.85596 2273.872,1169.34404 2273.872,1161.28 C2273.872,1153.21596 2273.424,1144.70404 2272.528,1135.744 C2270.28799,1112.89589 2261.66408,1094.64007 2246.656,1080.976 C2231.64792,1067.31193 2213.16811,1060.48 2191.216,1060.48 C2168.36789,1060.48 2149.55207,1067.19993 2134.768,1080.64 C2119.98393,1094.08007 2111.24801,1114.68786 2108.56,1142.464 C2108.112,1146.94402 2107.888,1153.21596 2107.888,1161.28 C2107.888,1195.32817 2115.39192,1220.63992 2130.4,1237.216 Z M2662.48,1003.024 C2687.56813,1018.48008 2706.94393,1039.19987 2720.608,1065.184 C2734.27207,1091.16813 2741.104,1119.61585 2741.104,1150.528 L2741.104,1180.768 C2741.104,1185.69602 2739.31202,1189.95198 2735.728,1193.536 C2732.14398,1197.12002 2727.88802,1198.912 2722.96,1198.912 L2498.512,1198.912 C2498.512,1218.1761 2506.12792,1233.51994 2521.36,1244.944 C2536.59208,1256.36806 2554.73589,1262.08 2575.792,1262.08 C2600.43212,1262.08 2619.47193,1256.92805 2632.912,1246.624 C2637.84002,1243.03998 2641.87198,1240.57601 2645.008,1239.232 C2648.14402,1237.88799 2652.39997,1237.216 2657.776,1237.216 L2711.536,1237.216 C2716.46402,1237.216 2720.71998,1238.89598 2724.304,1242.256 C2727.88802,1245.61602 2729.68,1249.53598 2729.68,1254.016 C2729.68,1263.42405 2723.52006,1275.29593 2711.2,1289.632 C2698.87994,1303.96807 2681.07212,1316.39995 2657.776,1326.928 C2634.47988,1337.45605 2607.15216,1342.72 2575.792,1342.72 C2542.63983,1342.72 2513.63212,1335.10408 2488.768,1319.872 C2463.90388,1304.63992 2444.75207,1283.36014 2431.312,1256.032 C2417.87193,1228.70386 2411.152,1197.12018 2411.152,1161.28 C2411.152,1127.67983 2417.87193,1097.10414 2431.312,1069.552 C2444.75207,1041.99986 2464.01587,1020.16008 2489.104,1004.032 C2514.19213,987.903919 2543.08784,979.84 2575.792,979.84 C2608.49616,979.84 2637.39187,987.567923 2662.48,1003.024 Z M2650.384,1122.304 C2645.45598,1081.08779 2620.59222,1060.48 2575.792,1060.48 C2552.49588,1060.48 2534.24007,1066.75194 2521.024,1079.296 C2507.80793,1091.84006 2500.30401,1106.17592 2498.512,1122.304 L2650.384,1122.304 Z M3024.208,1003.024 C3049.29613,1018.48008 3068.67193,1039.19987 3082.336,1065.184 C3096.00007,1091.16813 3102.832,1119.61585 3102.832,1150.528 L3102.832,1180.768 C3102.832,1185.69602 3101.04002,1189.95198 3097.456,1193.536 C3093.87198,1197.12002 3089.61602,1198.912 3084.688,1198.912 L2860.24,1198.912 C2860.24,1218.1761 2867.85592,1233.51994 2883.088,1244.944 C2898.32008,1256.36806 2916.46389,1262.08 2937.52,1262.08 C2962.16012,1262.08 2981.19993,1256.92805 2994.64,1246.624 C2999.56802,1243.03998 3003.59998,1240.57601 3006.736,1239.232 C3009.87202,1237.88799 3014.12797,1237.216 3019.504,1237.216 L3073.264,1237.216 C3078.19202,1237.216 3082.44798,1238.89598 3086.032,1242.256 C3089.61602,1245.61602 3091.408,1249.53598 3091.408,1254.016 C3091.408,1263.42405 3085.24806,1275.29593 3072.928,1289.632 C3060.60794,1303.96807 3042.80012,1316.39995 3019.504,1326.928 C2996.20788,1337.45605 2968.88016,1342.72 2937.52,1342.72 C2904.36783,1342.72 2875.36012,1335.10408 2850.496,1319.872 C2825.63188,1304.63992 2806.48007,1283.36014 2793.04,1256.032 C2779.59993,1228.70386 2772.88,1197.12018 2772.88,1161.28 C2772.88,1127.67983 2779.59993,1097.10414 2793.04,1069.552 C2806.48007,1041.99986 2825.74387,1020.16008 2850.832,1004.032 C2875.92013,987.903919 2904.81584,979.84 2937.52,979.84 C2970.22416,979.84 2999.11987,987.567923 3024.208,1003.024 Z M3012.112,1122.304 C3007.18398,1081.08779 2982.32022,1060.48 2937.52,1060.48 C2914.22388,1060.48 2895.96807,1066.75194 2882.752,1079.296 C2869.53593,1091.84006 2862.03201,1106.17592 2860.24,1122.304 L3012.112,1122.304 Z M3239.44,1445.536 C3239.44,1450.46402 3237.64802,1454.71998 3234.064,1458.304 C3230.47998,1461.88802 3226.22402,1463.68 3221.296,1463.68 L3170.224,1463.68 C3165.29598,1463.68 3161.04002,1461.88802 3157.456,1458.304 C3153.87198,1454.71998 3152.08,1450.46402 3152.08,1445.536 L3152.08,1004.704 C3152.08,999.775975 3153.87198,995.520018 3157.456,991.936 C3161.04002,988.351982 3165.29598,986.56 3170.224,986.56 L3221.296,986.56 C3226.22402,986.56 3230.47998,988.351982 3234.064,991.936 C3237.64802,995.520018 3239.44,999.775975 3239.44,1004.704 L3239.44,1020.16 C3248.84805,1009.40795 3261.83992,1000.00004 3278.416,991.936 C3294.99208,983.87196 3315.82387,979.84 3340.912,979.84 C3370.03215,979.84 3395.67989,987.119927 3417.856,1001.68 C3440.03211,1016.24007 3457.39194,1035.50388 3469.936,1059.472 C3482.48006,1083.44012 3489.42399,1109.53586 3490.768,1137.76 C3491.216,1142.24002 3491.44,1150.07994 3491.44,1161.28 C3491.44,1172.48006 3491.216,1180.31998 3490.768,1184.8 C3489.42399,1213.02414 3482.48006,1239.11988 3469.936,1263.088 C3457.39194,1287.05612 3440.03211,1306.31993 3417.856,1320.88 C3395.67989,1335.44007 3370.03215,1342.72 3340.912,1342.72 C3316.27188,1342.72 3295.66408,1338.68804 3279.088,1330.624 C3262.51192,1322.55996 3249.29605,1313.15205 3239.44,1302.4 L3239.44,1445.536 Z M3381.904,1085.344 C3366.67192,1068.76792 3346.28813,1060.48 3320.752,1060.48 C3298.35189,1060.48 3279.76007,1067.08793 3264.976,1080.304 C3250.19193,1093.52007 3241.68001,1111.99988 3239.44,1135.744 C3238.992,1140.22402 3238.768,1148.73594 3238.768,1161.28 C3238.768,1173.82406 3238.992,1182.33598 3239.44,1186.816 C3241.68001,1209.66411 3250.30392,1227.91993 3265.312,1241.584 C3280.32008,1255.24807 3298.79989,1262.08 3320.752,1262.08 C3343.60011,1262.08 3362.41593,1255.36007 3377.2,1241.92 C3391.98407,1228.47993 3400.71999,1207.87214 3403.408,1180.096 C3404.304,1171.13596 3404.752,1164.86402 3404.752,1161.28 C3404.752,1127.23183 3397.13608,1101.92008 3381.904,1085.344 Z M3866.608,1330.624 C3863.02398,1334.20802 3858.76802,1336 3853.84,1336 L3802.768,1336 C3797.83998,1336 3793.58402,1334.20802 3790,1330.624 C3786.41598,1327.03998 3784.624,1322.78402 3784.624,1317.856 L3784.624,1147.168 C3784.624,1119.39186 3778.12806,1097.66408 3765.136,1081.984 C3752.14394,1066.30392 3733.10413,1058.464 3708.016,1058.464 C3684.71988,1058.464 3666.12807,1066.52792 3652.24,1082.656 C3638.35193,1098.78408 3631.408,1120.28787 3631.408,1147.168 L3631.408,1317.856 C3631.408,1322.78402 3629.61602,1327.03998 3626.032,1330.624 C3622.44798,1334.20802 3618.19202,1336 3613.264,1336 L3562.192,1336 C3557.26398,1336 3553.00802,1334.20802 3549.424,1330.624 C3545.83998,1327.03998 3544.048,1322.78402 3544.048,1317.856 L3544.048,877.024 C3544.048,872.095975 3545.83998,867.840018 3549.424,864.256 C3553.00802,860.671982 3557.26398,858.88 3562.192,858.88 L3613.264,858.88 C3618.19202,858.88 3622.44798,860.671982 3626.032,864.256 C3629.61602,867.840018 3631.408,872.095975 3631.408,877.024 L3631.408,1020.16 C3658.28813,993.279866 3690.54381,979.84 3728.176,979.84 C3778.80025,979.84 3815.42389,994.399854 3838.048,1023.52 C3860.67211,1052.64015 3871.984,1090.49577 3871.984,1137.088 L3871.984,1317.856 C3871.984,1322.78402 3870.19202,1327.03998 3866.608,1330.624 Z M4022.704,864.256 C4026.28802,867.840018 4028.08,872.095975 4028.08,877.024 L4028.08,929.44 C4028.08,934.368025 4026.28802,938.623982 4022.704,942.208 C4019.11998,945.792018 4014.86402,947.584 4009.936,947.584 L3952.144,947.584 C3947.21598,947.584 3942.96002,945.792018 3939.376,942.208 C3935.79198,938.623982 3934,934.368025 3934,929.44 L3934,877.024 C3934,872.095975 3935.79198,867.840018 3939.376,864.256 C3942.96002,860.671982 3947.21598,858.88 3952.144,858.88 L4009.936,858.88 C4014.86402,858.88 4019.11998,860.671982 4022.704,864.256 Z M4019.344,1330.624 C4015.75998,1334.20802 4011.50402,1336 4006.576,1336 L3955.504,1336 C3950.57598,1336 3946.32002,1334.20802 3942.736,1330.624 C3939.15198,1327.03998 3937.36,1322.78402 3937.36,1317.856 L3937.36,1004.704 C3937.36,999.775975 3939.15198,995.520018 3942.736,991.936 C3946.32002,988.351982 3950.57598,986.56 3955.504,986.56 L4006.576,986.56 C4011.50402,986.56 4015.75998,988.351982 4019.344,991.936 C4022.92802,995.520018 4024.72,999.775975 4024.72,1004.704 L4024.72,1317.856 C4024.72,1322.78402 4022.92802,1327.03998 4019.344,1330.624 Z M4198.624,1085.008 C4186.75194,1096.88006 4180.816,1116.25587 4180.816,1143.136 L4180.816,1317.856 C4180.816,1322.78402 4179.02402,1327.03998 4175.44,1330.624 C4171.85598,1334.20802 4167.60002,1336 4162.672,1336 L4111.6,1336 C4106.67198,1336 4102.41602,1334.20802 4098.832,1330.624 C4095.24798,1327.03998 4093.456,1322.78402 4093.456,1317.856 L4093.456,1004.704 C4093.456,999.775975 4095.24798,995.520018 4098.832,991.936 C4102.41602,988.351982 4106.67198,986.56 4111.6,986.56 L4162.672,986.56 C4167.60002,986.56 4171.85598,988.351982 4175.44,991.936 C4179.02402,995.520018 4180.816,999.775975 4180.816,1004.704 L4180.816,1020.16 C4192.91206,1008.51194 4205.67993,1000.00003 4219.12,994.624 C4232.56007,989.247973 4249.5839,986.56 4270.192,986.56 L4300.432,986.56 C4305.36002,986.56 4309.61598,988.351982 4313.2,991.936 C4316.78402,995.520018 4318.576,999.775975 4318.576,1004.704 L4318.576,1049.056 C4318.576,1053.98402 4316.78402,1058.23998 4313.2,1061.824 C4309.61598,1065.40802 4305.36002,1067.2 4300.432,1067.2 L4256.752,1067.2 C4229.87187,1067.2 4210.49606,1073.13594 4198.624,1085.008 Z M4584.208,1003.024 C4609.29613,1018.48008 4628.67193,1039.19987 4642.336,1065.184 C4656.00007,1091.16813 4662.832,1119.61585 4662.832,1150.528 L4662.832,1180.768 C4662.832,1185.69602 4661.04002,1189.95198 4657.456,1193.536 C4653.87198,1197.12002 4649.61602,1198.912 4644.688,1198.912 L4420.24,1198.912 C4420.24,1218.1761 4427.85592,1233.51994 4443.088,1244.944 C4458.32008,1256.36806 4476.46389,1262.08 4497.52,1262.08 C4522.16012,1262.08 4541.19993,1256.92805 4554.64,1246.624 C4559.56802,1243.03998 4563.59998,1240.57601 4566.736,1239.232 C4569.87202,1237.88799 4574.12797,1237.216 4579.504,1237.216 L4633.264,1237.216 C4638.19202,1237.216 4642.44798,1238.89598 4646.032,1242.256 C4649.61602,1245.61602 4651.408,1249.53598 4651.408,1254.016 C4651.408,1263.42405 4645.24806,1275.29593 4632.928,1289.632 C4620.60794,1303.96807 4602.80012,1316.39995 4579.504,1326.928 C4556.20788,1337.45605 4528.88016,1342.72 4497.52,1342.72 C4464.36783,1342.72 4435.36012,1335.10408 4410.496,1319.872 C4385.63188,1304.63992 4366.48007,1283.36014 4353.04,1256.032 C4339.59993,1228.70386 4332.88,1197.12018 4332.88,1161.28 C4332.88,1127.67983 4339.59993,1097.10414 4353.04,1069.552 C4366.48007,1041.99986 4385.74387,1020.16008 4410.832,1004.032 C4435.92013,987.903919 4464.81584,979.84 4497.52,979.84 C4530.22416,979.84 4559.11987,987.567923 4584.208,1003.024 Z M4572.112,1122.304 C4567.18398,1081.08779 4542.32022,1060.48 4497.52,1060.48 C4474.22388,1060.48 4455.96807,1066.75194 4442.752,1079.296 C4429.53593,1091.84006 4422.03201,1106.17592 4420.24,1122.304 L4572.112,1122.304 Z" id="wordmark" fill="#FFFFFF"></path>
            <g id="logomark" transform="translate(304.000000, 304.000000)">
                <rect id="bounds" x="0" y="0" width="1440" height="1440"></rect>
                <path d="M960,528 L960,288 L480,288 L480,528 L384,528 L384,240 C384,213.490332 405.490332,192 432,192 L1008,192 C1034.50967,192 1056,213.490332 1056,240 L1056,528 L960,528 Z" id="handle" fill="url(#linearGradient-1)" fill-rule="nonzero"></path>
                <path d="M672,432 L672,682.242342 C652.775796,675.447561 632.55687,672 612,672 C512.588745,672 432,752.588745 432,852 C432,951.411255 512.588745,1032 612,1032 C632.55687,1032 652.775796,1028.55244 672,1021.75766 L672,1272 L168,1272 C141.490332,1272 120,1250.50967 120,1224 L120,480 C120,453.490332 141.490332,432 168,432 L672,432 Z M768,432 L1272,432 C1298.50967,432 1320,453.490332 1320,480 L1320,1224 C1320,1250.50967 1298.50967,1272 1272,1272 L768,1272 L768,886.006481 L640.008376,931.245029 C631.146394,934.37729 621.751558,936 612,936 C565.608081,936 528,898.391919 528,852 C528,805.608081 565.608081,768 612,768 C621.751558,768 631.146394,769.62271 640.008376,772.754971 L768,817.993519 L768,432 Z" id="briefcase-puzzle" fill="url(#linearGradient-2)" fill-rule="nonzero"></path>
            </g>
        </g>
    </g>
</svg>